# xmcd
#
# Track frame offsets:
#	150
#	14316
#	32458
#	47425
#	59060
#	79609
#	99043
#	114104
#	132753
#	151239
#	166186
#
# Disc length: 2446 seconds
#
# Revision: 2
# Processed by: cddbd v1.5.2PL0 Copyright (c) Steve Scherf et al.
# Submitted via: audiograbber 1.83.01
#
DISCID=6f098c0b
DTITLE=casey ashley - casey
DYEAR=1900
DGENRE=
TTITLE0=the fisherman
TTITLE1=the dance
TTITLE2=man in love with you
TTITLE3=fall in love
TTITLE4=one of these days
TTITLE5=one night a day
TTITLE6=is that a tear
TTITLE7=memories of us
TTITLE8=the change
TTITLE9=where the green grass grows
TTITLE10=you had me from hello
EXTD=
EXTT0=
EXTT1=
EXTT2=
EXTT3=
EXTT4=
EXTT5=
EXTT6=
EXTT7=
EXTT8=
EXTT9=
EXTT10=
PLAYORDER=
